<svg width="401" height="401" viewBox="0 0 401 401" fill="none" xmlns="http://www.w3.org/2000/svg">
<g clip-path="url(#clip0_367_29261)">
<rect x="0.0390625" y="0.361328" width="400" height="400" rx="200" fill="#97FCE4"/>
<path fill-rule="evenodd" clip-rule="evenodd" d="M-290.266 200.361V568.09H200.039H690.344V200.361V-167.367H200.039H-290.266V200.361ZM205.888 100.768C218.977 117.466 227.006 141.093 227.006 162.918V171.783L234.36 178.519L241.715 185.256V196.354C241.715 208.693 240.635 210.34 234.59 207.231C232.778 206.299 229.222 204.674 226.686 203.618L222.076 201.701L218.489 209.611L214.901 217.522H200.141H185.38L183.071 212.925C171.103 189.093 169.997 151.233 180.498 124.799C186.159 110.55 195.973 96.1716 200.039 96.1716C201.275 96.1716 203.906 98.2407 205.888 100.768ZM161.463 131.776C162.137 132.867 160.959 140.012 158.806 147.898C158.493 149.044 154.685 153.411 150.343 157.604C140.28 167.32 133.66 177.551 129.423 189.942C124.889 203.201 124.634 222.508 128.835 234.683C135.935 255.267 148.542 270.137 166.393 278.982C179.077 285.267 187.453 286.493 191.317 282.63C194.435 279.511 194.567 275.394 192.072 259.198C188.892 238.567 190.228 228.958 195.718 232.973C198.81 235.233 201.863 235.135 204.304 232.694C206.137 230.861 206.434 230.884 208.114 233.001C210.202 235.63 209.938 245.762 207.263 265.728C205.852 276.249 205.884 278.187 207.505 281.05C212.407 289.696 236.504 281.396 252.44 265.573C261.522 256.556 269.474 242.823 272.455 231.005C273.39 227.297 274.125 218.748 274.087 212.006C273.972 190.989 266.314 173.691 250.214 158.08C241.758 149.88 240.649 147.813 238.615 136.456C237.576 130.65 239.18 129.821 244.991 133.159C266.356 145.429 281.838 165.281 288.511 188.963C292.1 201.702 292.334 224.177 288.999 235.908C284.879 250.404 274.152 269.009 264.973 277.584C257.307 284.745 246.874 292.206 241.715 294.22C240.704 294.615 238.407 295.724 236.61 296.688C234.813 297.65 229.573 299.657 224.965 301.146C213.005 305.013 187.169 305.062 175.524 301.24C163.252 297.211 158.418 294.937 149.783 289.126C131.138 276.578 119.356 260.923 112.232 239.227C107.732 225.526 107.436 203.524 111.556 188.963C117.979 166.262 132.751 146.686 152.603 134.571C159.817 130.167 160.362 129.995 161.463 131.776ZM168.563 190.249C170.436 196.148 172.225 201.55 172.538 202.254C173.294 203.952 162.613 209.084 160.228 208.169C158.755 207.604 158.363 205.197 158.363 196.718C158.363 187.714 158.773 185.462 160.904 182.753C162.3 180.977 163.83 179.523 164.301 179.523C164.771 179.523 166.69 184.35 168.563 190.249Z" fill="#072724"/>
</g>
<defs>
<clipPath id="clip0_367_29261">
<rect x="0.0390625" y="0.361328" width="400" height="400" rx="200" fill="white"/>
</clipPath>
</defs>
</svg>
